<?xml version="1.0" encoding="iso-8859-1"?>
<!-- Generator: Adobe Illustrator 19.0.0, SVG Export Plug-In . SVG Version: 6.00 Build 0)  -->
<svg version="1.1" id="Capa_1" xmlns="http://www.w3.org/2000/svg" xmlns:xlink="http://www.w3.org/1999/xlink" x="0px" y="0px"
	 viewBox="0 0 512.001 512.001" style="enable-background:new 0 0 512.001 512.001;" xml:space="preserve">
<g>
	<g>
		<path d="M256.002,227.339c-15.763,0-28.586,12.823-28.586,28.585v0.15c0,15.763,12.823,28.586,28.586,28.586
			c15.763,0,28.586-12.823,28.586-28.586v-0.15C284.588,240.162,271.765,227.339,256.002,227.339z M269.588,256.075
			c0,7.491-6.095,13.586-13.586,13.586c-7.491,0-13.586-6.095-13.586-13.586v-0.15c0-7.491,6.095-13.585,13.586-13.585
			c7.491,0,13.586,6.094,13.586,13.585V256.075z" fill="white"/>
	</g>
</g>
<g>
	<g>
		<path d="M490.639,234.636h-25.577c-4.136-40.559-19.948-79.104-46.199-111.283l18.16-18.16c8.328-8.329,8.328-21.882-0.001-30.212
			c-8.33-8.328-21.883-8.329-30.213,0.001l-18.154,18.155c-11.119-9.07-23.167-17.026-35.988-23.695
			c-3.673-1.912-8.203-0.483-10.114,3.192c-1.912,3.675-0.483,8.203,3.192,10.114c60.353,31.395,100.344,91.949,104.942,159.895
			c8.01,118.503-90.544,215.987-208.001,208.042c-99.608-6.746-179.511-88.698-181.779-190.557
			C58.103,126.061,188.414,30.061,314.56,69.831c3.949,1.245,8.163-0.948,9.408-4.898c1.245-3.95-0.948-8.162-4.898-9.408
			c-13.578-4.28-27.538-7.146-41.703-8.585V21.364C277.365,9.584,267.781,0,256.002,0s-21.363,9.584-21.363,21.363v25.565
			c-41.946,4.254-80.28,20.903-111.288,46.206l-18.155-18.154c-8.329-8.329-21.883-8.33-30.214,0c-8.329,8.33-8.329,21.883,0,30.213
			l18.155,18.155c-25.302,31.008-41.951,69.341-46.205,111.287H21.365c-11.779,0-21.363,9.584-21.363,21.365
			c0,11.779,9.584,21.363,21.363,21.363h25.566c4.254,41.945,20.903,80.279,46.206,111.287l-18.156,18.156
			c-13.47,13.472-3.798,36.459,15.107,36.459c5.471,0,10.941-2.082,15.106-6.246l18.155-18.155
			c31.008,25.303,69.342,41.951,111.287,46.206v25.566c0,11.779,9.584,21.363,21.363,21.363s21.363-9.584,21.363-21.363v-25.566
			c41.945-4.254,80.279-20.903,111.287-46.206l18.155,18.155c8.329,8.327,21.881,8.329,30.214-0.001
			c8.328-8.329,8.328-21.882,0-30.212l-18.156-18.156c25.302-31.007,41.951-69.341,46.206-111.287h25.566
			c11.779,0,21.363-9.584,21.363-21.363C512.002,244.22,502.418,234.636,490.639,234.636z M399.96,103.043l17.455-17.455
			c2.48-2.483,6.519-2.48,8.999-0.001c2.48,2.481,2.48,6.518,0,8.999l-17.454,17.455
			C407.694,110.696,403.145,106.043,399.96,103.043z M249.638,21.364h0.001c0-3.509,2.854-6.363,6.363-6.363
			s6.363,2.855,6.363,6.363v24.588c-4.537-0.142-8.604-0.127-12.727,0V21.364z M85.59,94.586c-2.481-2.481-2.481-6.518-0.001-8.998
			c2.48-2.48,6.519-2.483,9,0l17.455,17.455c-3.054,2.874-6.385,6.222-8.999,8.999L85.59,94.586z M45.954,262.364H21.365
			c-3.509,0-6.363-2.854-6.363-6.363c0-3.509,2.854-6.364,6.363-6.364h24.589C45.836,253.488,45.804,257.413,45.954,262.364z
			 M94.589,426.412c-2.482,2.483-6.521,2.482-8.999,0c-2.481-2.48-2.481-6.517,0-8.998l17.455-17.456
			c2.926,3.102,6.107,6.271,9,8.999L94.589,426.412z M262.366,490.636L262.366,490.636c-0.001,3.509-2.855,6.363-6.364,6.363
			s-6.363-2.854-6.363-6.363v-24.589c4.907,0.151,8.977,0.115,12.727,0V490.636z M426.414,417.413
			c2.48,2.482,2.48,6.519,0.001,8.999c-2.482,2.483-6.52,2.483-9,0l-17.456-17.455c3.011-2.84,6.157-5.985,9-8.999L426.414,417.413z
			 M490.639,262.364H466.05c0.137-4.515,0.13-8.648,0-12.728h24.589c3.509,0,6.363,2.855,6.363,6.364
			S494.148,262.364,490.639,262.364z" fill="white"/>
	</g>
</g>
<g>
	<g>
		<path d="M259.138,73.788h-6.271c-4.143,0-7.5,3.357-7.5,7.5c0,4.143,3.357,7.5,7.5,7.5h6.271c4.143,0,7.5-3.357,7.5-7.5
			C266.638,77.145,263.281,73.788,259.138,73.788z" fill="white"/>
	</g>
</g>
<g>
	<g>
		<path d="M259.137,424.139h-6.271c-4.143,0-7.5,3.357-7.5,7.5c0,4.143,3.357,7.5,7.5,7.5h6.271c4.143,0,7.5-3.357,7.5-7.5
			C266.637,427.496,263.28,424.139,259.137,424.139z" fill="white"/>
	</g>
</g>
<g>
	<g>
		<path d="M139.654,125.075c-2.93-2.928-7.678-2.928-10.607,0l-4.434,4.434c-4.739,4.741-1.318,12.804,5.304,12.804
			c4.674-0.001,6.338-3.748,9.737-6.631C142.583,132.752,142.583,128.004,139.654,125.075z" fill="white"/>
	</g>
</g>
<g>
	<g>
		<path d="M387.39,372.812c-2.929-2.929-7.677-2.929-10.607-0.001l-4.434,4.434c-4.74,4.741-1.318,12.804,5.304,12.804
			c4.674,0,6.338-3.747,9.737-6.63C390.319,380.489,390.319,375.741,387.39,372.812z" fill="white"/>
	</g>
</g>
<g>
	<g>
		<path d="M80.826,245.828c-4.142,0-7.5,3.357-7.5,7.5v6.271c0,4.143,3.357,7.5,7.5,7.5c4.143,0,7.5-3.357,7.5-7.5v-6.271
			C88.326,249.185,84.969,245.828,80.826,245.828z" fill="white"/>
	</g>
</g>
<g>
	<g>
		<path d="M431.178,245.828c-4.143,0-7.5,3.357-7.5,7.5v6.271c0,4.143,3.357,7.5,7.5,7.5c4.142,0,7.5-3.357,7.5-7.5v-6.271
			C438.678,249.185,435.321,245.828,431.178,245.828z" fill="white"/>
	</g>
</g>
<g>
	<g>
		<path d="M139.654,377.244l-4.434-4.434c-2.929-2.927-7.677-2.927-10.607,0.001c-2.929,2.93-2.929,7.678,0,10.607
			c3.371,2.859,5.066,6.63,9.737,6.63C140.974,390.048,144.391,381.983,139.654,377.244z" fill="white"/>
	</g>
</g>
<g>
	<g>
		<path d="M387.391,129.508l-4.434-4.434c-2.93-2.928-7.678-2.928-10.607,0c-2.929,2.93-2.929,7.678,0,10.607
			c3.371,2.86,5.066,6.631,9.737,6.631C388.711,142.312,392.128,134.247,387.391,129.508z" fill="white"/>
	</g>
</g>
<g>
	<g>
		<path d="M410.008,241.441c0-0.002,0-0.003-0.001-0.005v-0.001c-12.798-136.409-186.69-190.052-273.2-83.935
			c-33.934,40.992-42.865,94.19-29.64,140.732c1.133,3.985,5.283,6.295,9.265,5.165c3.984-1.133,6.297-5.28,5.164-9.265
			c-1.564-5.504-2.764-11.106-3.636-16.769h80.817c0.481,1.284,1.172,2.931,1.657,3.992l-57.097,57.097
			c-3.202-4.363-6.185-8.923-8.894-13.694c-2.047-3.603-6.626-4.863-10.226-2.817c-3.602,2.046-4.863,6.624-2.817,10.226
			c53.906,94.91,186.247,105.307,253.791,22.34C401.165,323.135,413.887,282.81,410.008,241.441z M368.682,173.532
			c12.975,17.678,21.9,38.503,25.383,61.104h-80.838c-0.483-1.291-1.179-2.945-1.657-3.992L368.682,173.532z M359.128,161.873
			l-55.695,55.695c-2.68-3.302-5.697-6.318-8.999-8.999l55.695-55.696C353.26,155.735,356.266,158.741,359.128,161.873z
			 M281.358,200.432c-0.934-0.428-2.613-1.142-3.992-1.658v-80.836c22.6,3.483,43.425,12.408,61.103,25.382L281.358,200.432z
			 M249.639,116.456c4.018-0.181,8.08-0.209,12.727,0v78.795c-4.255-0.443-8.469-0.443-12.727,0V116.456z M234.639,117.937v80.837
			c-1.274,0.477-2.939,1.176-3.992,1.658l-57.111-57.112C191.214,130.345,212.039,121.42,234.639,117.937z M195.253,262.364h-78.785
			c-0.195-4.335-0.232-7.87-0.01-12.728h78.795C194.81,253.891,194.81,258.105,195.253,262.364z M198.776,234.636h-80.838
			c3.483-22.6,12.408-43.425,25.382-61.104l57.112,57.111C199.999,231.595,199.292,233.26,198.776,234.636z M152.875,161.873
			c2.862-3.131,5.868-6.138,9-9l55.695,55.696c-3.302,2.68-6.318,5.697-8.999,8.999L152.875,161.873z M152.893,350.11l55.678-55.678
			c2.68,3.302,5.697,6.318,8.999,8.999l-55.666,55.667C158.79,356.26,156.088,353.602,152.893,350.11z M230.646,311.568
			c0.99,0.453,2.65,1.156,3.992,1.658v80.793c-22.212-3.466-43.14-12.253-61.068-25.374L230.646,311.568z M262.365,395.544
			c-4.843,0.219-8.457,0.183-12.727-0.013v-78.782c4.256,0.443,8.469,0.443,12.727,0V395.544z M211.611,268.333
			c-10.736-38.585,29.687-71.535,65.227-53.414c33.33,16.96,33.821,64.95-0.001,82.164
			C251.054,310.209,219.41,296.428,211.611,268.333z M277.365,394.063v-80.837c1.282-0.48,2.946-1.179,3.992-1.658l57.111,57.112
			C320.791,381.654,299.965,390.58,277.365,394.063z M368.682,338.469l-16.938-16.939c-2.929-2.929-7.678-2.93-10.606-0.001
			c-2.93,2.929-2.93,7.678-0.001,10.607l17.991,17.992c-2.862,3.132-5.868,6.138-8.999,8.999l-55.695-55.696
			c3.302-2.68,6.318-5.697,8.999-8.999l12.954,12.954c2.93,2.928,7.678,2.928,10.607,0c2.929-2.93,2.929-7.678,0-10.607
			l-15.423-15.422c0.185-0.406,0.358-0.816,0.534-1.226c0.077-0.178,0.158-0.355,0.233-0.534c0.31-0.739,0.609-1.482,0.89-2.233
			h80.837C390.582,299.964,381.656,320.789,368.682,338.469z M395.546,262.364h-78.795c0.442-4.254,0.443-8.469,0-12.728h78.795
			C395.753,254.162,395.741,258.05,395.546,262.364z" fill="white"/>
	</g>
</g>
<g>
</g>
<g>
</g>
<g>
</g>
<g>
</g>
<g>
</g>
<g>
</g>
<g>
</g>
<g>
</g>
<g>
</g>
<g>
</g>
<g>
</g>
<g>
</g>
<g>
</g>
<g>
</g>
<g>
</g>
</svg>
